<svg xmlns="http://www.w3.org/2000/svg" xmlns:xlink="http://www.w3.org/1999/xlink" width="26" height="26" viewBox="0 0 26 26">
  <defs>
    <style>
      .cls-4 {
        fill: #582488;
      }
    </style>
  </defs>
  <g id="グループ_1289">
    <path id="パス_827" class="cls-4" d="M316.868,293.9c-.014-.005-.027-.026-.014-.038a4.125,4.125,0,0,1,.3-.975c.189-.277.392-.367.58-.223.185.112.179.34-.021.606a3.87,3.87,0,0,1-.8.629c-.022.016-.027.016-.038,0m-2.181,0a4.4,4.4,0,0,1-.815-.629c-.181-.266-.2-.495-.015-.606.2-.144.394-.054.583.223a3.719,3.719,0,0,1,.3.975.03.03,0,0,1-.013.038c-.005.016-.024.016-.038,0m2.181-3.4c-.014,0-.027-.021-.014-.032a4.091,4.091,0,0,1,.3-.981c.189-.271.392-.357.58-.229s.179.351-.021.618a3.7,3.7,0,0,1-.8.623c-.022.011-.027.011-.038,0m-2.181,0a4.183,4.183,0,0,1-.815-.623c-.181-.266-.2-.489-.015-.618.2-.128.394-.042.583.229a3.7,3.7,0,0,1,.3.981c.006.01,0,.032-.013.032s-.024.011-.038,0m7.917,2.3a3.95,3.95,0,0,1-.911-.479c-.234-.234-.288-.447-.133-.6s.386-.111.615.123a3.981,3.981,0,0,1,.474.9c0,.021,0,.032-.005.032-.014.027-.03.032-.04.027m2.021.1c-.014-.005-.014-.021-.008-.038a4.118,4.118,0,0,1,.546-.953c.261-.24.49-.293.658-.117s.1.415-.152.655a3.972,3.972,0,0,1-1,.463c-.019.011-.029,0-.045-.01m-1.014-2.364a.039.039,0,0,1-.04-.032,4.317,4.317,0,0,1-.333-1.049c0-.352.122-.543.373-.543s.367.191.367.543a4.208,4.208,0,0,1-.333,1.049.048.048,0,0,1-.034.032M308.989,292.8a4.1,4.1,0,0,0,.913-.479c.229-.234.279-.447.12-.6s-.375-.111-.609.123a4.318,4.318,0,0,0-.472.9c-.007.021-.007.032.009.032.011.027.024.032.04.027m-2.016.1c.008-.005.008-.021.005-.038a4.316,4.316,0,0,0-.551-.953c-.259-.24-.49-.293-.659-.117s-.111.415.163.655a3.734,3.734,0,0,0,.993.463c.018.011.032,0,.048-.01m1.015-2.364a.031.031,0,0,0,.029-.032,4.127,4.127,0,0,0,.338-1.049c0-.352-.126-.543-.367-.543-.259,0-.378.191-.378.543a4.429,4.429,0,0,0,.333,1.049.05.05,0,0,0,.045.032m7.764-3.116a4.243,4.243,0,0,1-.322-1.017c0-.351.117-.538.36-.538s.365.187.365.538a4.321,4.321,0,0,1-.322,1.017.045.045,0,0,1-.043.021c-.021,0-.026-.006-.038-.021m-.038,21.361c-.013-1.46-.039-3.579-.052-5.656-.7.261-1.186,1.076-1.257,2.423a6.618,6.618,0,0,0,.42,2.673c.049.1.142.283.1.309s-.166-.144-.208-.245a6.016,6.016,0,0,1-.538-2.8c.038-1.252.492-2.434,1.484-2.684,0-.383-.009-.788-.009-1.134a3.259,3.259,0,0,0-2.373,2.578,4.755,4.755,0,0,0,.084,2.838c.047.107.1.3.047.314-.053.026-.131-.16-.178-.272a4.873,4.873,0,0,1-.146-2.956,3.455,3.455,0,0,1,2.567-2.876c-.008-.4-.008-.782-.011-1.171a4.32,4.32,0,0,0-3.344,3.184,4.61,4.61,0,0,0,.064,3.1c.04.112.088.3.032.325s-.125-.171-.17-.272a5.136,5.136,0,0,1-.137-3.228,4.632,4.632,0,0,1,3.55-3.5c0-.437,0-.852,0-1.214a5.451,5.451,0,0,0-4.031,3.157,4.729,4.729,0,0,0-.479,3.18c.032.117.085.309.032.331s-.126-.17-.166-.288a5.039,5.039,0,0,1,.4-3.345,5.833,5.833,0,0,1,4.239-3.44c0-.325,0-.612,0-.836a.967.967,0,0,1-.565-.308,7.691,7.691,0,0,0-5.3,7.035,1.967,1.967,0,0,0,1.39,1.97,2.139,2.139,0,0,0,.645,1.71,3.361,3.361,0,0,0,1.709.682h.005a2.529,2.529,0,0,0,4.573,0h0a3.338,3.338,0,0,0,1.7-.682,2.139,2.139,0,0,0,.649-1.71,1.979,1.979,0,0,0,1.393-1.97,7.71,7.71,0,0,0-5.3-7.035.972.972,0,0,1-.57.308c0,.225,0,.512-.008.836a5.843,5.843,0,0,1,4.25,3.44,5.031,5.031,0,0,1,.391,3.345c-.038.118-.109.3-.162.288s0-.214.032-.331a4.77,4.77,0,0,0-.473-3.18,5.471,5.471,0,0,0-4.037-3.157v1.214a4.626,4.626,0,0,1,3.55,3.5,5.152,5.152,0,0,1-.141,3.228c-.045.1-.113.293-.171.272s0-.214.043-.325a4.7,4.7,0,0,0,.062-3.1,4.333,4.333,0,0,0-3.35-3.184c0,.389,0,.767,0,1.171a3.475,3.475,0,0,1,2.567,2.876,4.961,4.961,0,0,1-.157,2.956c-.045.112-.125.3-.171.272-.055-.01,0-.208.04-.314a4.781,4.781,0,0,0,.085-2.838,3.265,3.265,0,0,0-2.375-2.578c0,.346-.005.751-.005,1.134,1,.25,1.449,1.432,1.481,2.684a6.205,6.205,0,0,1-.53,2.8c-.055.1-.157.266-.211.245s.044-.208.088-.309a6.38,6.38,0,0,0,.426-2.673c-.064-1.347-.556-2.162-1.256-2.423-.014,2.077-.032,4.2-.048,5.656-.006.463-.032.543-.08.543s-.072-.08-.075-.543m1.953-12.366a5.527,5.527,0,0,0-.879-.085,1.07,1.07,0,0,1-.1.389,6.658,6.658,0,0,1,1.151.523,3.342,3.342,0,0,1-.176-.826m1.707,1.88a2.954,2.954,0,0,1-.149-.932,1.631,1.631,0,0,1,.085-.576,7.348,7.348,0,0,0-1.295-.336,2.391,2.391,0,0,0,.181.981,9.574,9.574,0,0,1,1.178.863m-5.642-1.054a7.419,7.419,0,0,1,1.155-.523.839.839,0,0,1-.082-.389,5.634,5.634,0,0,0-.893.085,3.1,3.1,0,0,1-.18.826m5.977,1.358a7.592,7.592,0,0,1,2.4,5.458l.147.033a3.3,3.3,0,0,0,.641.1,2.5,2.5,0,0,0,.945-.294h.014a2.689,2.689,0,0,0,2.748-.33,2.389,2.389,0,0,0,.8-2.232v-.01h.019a1.674,1.674,0,0,0,1.324-1.832,1.8,1.8,0,0,0-.938-1.816,1.684,1.684,0,0,0,.155-1.284c-.378-1.608-3.2-3.046-6.766-2.9a7.581,7.581,0,0,0-3.393.969,5.281,5.281,0,0,0-1.387,1.075.976.976,0,0,1,.323.506,6.111,6.111,0,0,1,1,.075,4.476,4.476,0,0,1,.994-.724,6.484,6.484,0,0,1,5.517-.442,7.843,7.843,0,0,1,1.515.723,5.405,5.405,0,0,1,1.268,1.06,2.013,2.013,0,0,1,.143.2c.117.155.1.181.1.186h-.019c-.072,0-.307-.234-.325-.267a7.136,7.136,0,0,0-4.722-2.007,5.666,5.666,0,0,0-4.071,1.332,9.107,9.107,0,0,1,1.318.356,5.436,5.436,0,0,1,1.167-.522,5.58,5.58,0,0,1,1.158-.213,4.029,4.029,0,0,1,1.379.079,7.058,7.058,0,0,1,1.786.693,7.815,7.815,0,0,1,1.362.953,6.865,6.865,0,0,1,1.1,1.246c.016,0,.016.01.016.01a2.387,2.387,0,0,1,.131.224c.112.208.1.224.082.235s-.008.005-.021.005c-.061-.016-.16-.128-.168-.128a7.464,7.464,0,0,0-4.228-2.966,4.415,4.415,0,0,0-2.187.059,4.876,4.876,0,0,0-1.249.479,6.592,6.592,0,0,1,1.251.581,2.336,2.336,0,0,1,.6-.234,3.876,3.876,0,0,1,1.222-.054,5.456,5.456,0,0,1,1.174.346,4.788,4.788,0,0,1,1.049.629,6.832,6.832,0,0,1,1.729,2.1,1.267,1.267,0,0,1,.082.245c.064.218.043.229.032.229h-.005c-.046-.005-.128-.138-.256-.378h-.008a5.1,5.1,0,0,0-3.768-2.907,2.616,2.616,0,0,0-1.555.186,6.911,6.911,0,0,1,1.163.857,1.786,1.786,0,0,1,.871.016,3.4,3.4,0,0,1,1.523.937,5,5,0,0,1,1.275,1.97,4.2,4.2,0,0,1,.237,1.022s.01.336-.059.336c0,0-.016,0-.016-.011a.546.546,0,0,1-.056-.25,4.46,4.46,0,0,0-1.4-2.78,2.824,2.824,0,0,0-2.066-1.005.37.37,0,0,0,.062.068c.018.006.045.043.058.059a11.713,11.713,0,0,1,2.751,4.1c.015.026.079.186.143.351.12.336.1.347.083.363-.009,0-.038,0-.187-.3-.073-.132-.151-.3-.165-.325a12.117,12.117,0,0,0-2.966-4.143,6.531,6.531,0,0,0,.371,1.859,5.044,5.044,0,0,0,1.879,2.487c.021.01.107.079.2.154.163.138.147.171.147.176s-.008.006-.008.006a1.151,1.151,0,0,1-.412-.214,5.3,5.3,0,0,1-1.457-1.475,6.06,6.06,0,0,1-.738-1.508,4,4,0,0,1-.234-1.715v-.021a8.318,8.318,0,0,0-1.132-.761c-.489,1.842,1.02,4.1,2.192,5.3,0,0,.245.266.2.309h-.019c-.062,0-.269-.176-.3-.2a8.408,8.408,0,0,1-1.987-2.923,4.285,4.285,0,0,1-.37-2.657,7.2,7.2,0,0,0-1.286-.613,2.563,2.563,0,0,0,.072,1.7m-7.759-1.7a6.811,6.811,0,0,0-1.281.613,4.382,4.382,0,0,1-.378,2.657,8.484,8.484,0,0,1-1.983,2.923c-.03.027-.232.2-.3.2H308c-.055-.043.191-.309.191-.309,1.169-1.2,2.682-3.457,2.2-5.3a8.485,8.485,0,0,0-1.133.761v.021a3.987,3.987,0,0,1-.242,1.715,5.667,5.667,0,0,1-.735,1.508,5.345,5.345,0,0,1-1.445,1.475,1.4,1.4,0,0,1-.416.214c-.008,0-.008-.006-.008-.006s-.024-.038.146-.176c.08-.074.178-.144.19-.154a4.991,4.991,0,0,0,1.877-2.487,6.446,6.446,0,0,0,.381-1.859,12.086,12.086,0,0,0-2.967,4.143c-.019.021-.091.192-.167.325-.155.3-.171.3-.184.3-.026-.016-.04-.027.085-.363.056-.165.126-.325.137-.351a11.747,11.747,0,0,1,2.75-4.1c.021-.016.04-.053.067-.059.016-.026.04-.043.056-.068a2.849,2.849,0,0,0-2.074,1.005,4.532,4.532,0,0,0-1.392,2.78c-.009.054-.016.219-.054.25,0,.011-.014.011-.021.011-.064,0-.05-.336-.05-.336a4.292,4.292,0,0,1,.234-1.022,5.117,5.117,0,0,1,1.268-1.97,3.481,3.481,0,0,1,1.531-.937,1.762,1.762,0,0,1,.865-.016,7.054,7.054,0,0,1,1.174-.857,2.669,2.669,0,0,0-1.563-.186,5.113,5.113,0,0,0-3.765,2.907h0c-.139.24-.219.373-.259.378h-.008c-.016,0-.032-.011.026-.229.032-.1.074-.229.077-.245a7.164,7.164,0,0,1,1.736-2.1,5.013,5.013,0,0,1,1.045-.629,5.538,5.538,0,0,1,1.179-.346,3.876,3.876,0,0,1,1.222.054,2.358,2.358,0,0,1,.6.234,6.52,6.52,0,0,1,1.246-.581,4.88,4.88,0,0,0-1.241-.479,4.425,4.425,0,0,0-2.189-.059,7.49,7.49,0,0,0-4.231,2.966.538.538,0,0,1-.176.128c-.005,0-.005,0-.013-.005s-.024-.027.083-.235a1.561,1.561,0,0,1,.141-.224v-.01a7.04,7.04,0,0,1,1.11-1.246,7.791,7.791,0,0,1,1.358-.953,6.907,6.907,0,0,1,1.792-.693,4.014,4.014,0,0,1,1.379-.079,5.2,5.2,0,0,1,2.327.735,8.829,8.829,0,0,1,1.31-.356,5.672,5.672,0,0,0-4.08-1.332,7.164,7.164,0,0,0-4.718,2.007c-.016.032-.255.267-.312.267h-.018c-.008-.005-.026-.032.087-.186.062-.09.12-.181.136-.2h.005a5.451,5.451,0,0,1,1.273-1.06,7.339,7.339,0,0,1,1.518-.723,6.459,6.459,0,0,1,5.506.442,4.65,4.65,0,0,1,1,.724,6.1,6.1,0,0,1,1-.075.909.909,0,0,1,.327-.506,5.359,5.359,0,0,0-1.4-1.075,7.553,7.553,0,0,0-3.4-.969c-3.56-.149-6.38,1.289-6.753,2.9a1.658,1.658,0,0,0,.141,1.284,1.807,1.807,0,0,0-.929,1.816,1.672,1.672,0,0,0,1.332,1.832h.008v.01a2.385,2.385,0,0,0,.81,2.232,2.68,2.68,0,0,0,2.743.33h0a2.717,2.717,0,0,0,.953.294,3.5,3.5,0,0,0,.653-.1l.142-.033a7.6,7.6,0,0,1,2.4-5.458,2.556,2.556,0,0,0,.078-1.7m3.839.155a.74.74,0,1,0-.729-.746.739.739,0,0,0,.729.746m7.067-3.77a8.274,8.274,0,0,1,1.456.229,1.954,1.954,0,0,1,1.209-.235,2.232,2.232,0,0,0,1.632-.436.86.86,0,0,0,.352-.693.9.9,0,0,0-.4-.591l-.008-.01a.989.989,0,0,0,.314-.581.58.58,0,0,0-.189-.458h-.013a.913.913,0,0,0-1.247.074l0,.006-.008-.006a.854.854,0,0,0-.575-.341,1.006,1.006,0,0,0-.776.394,2.132,2.132,0,0,0-.5,1.646,1.371,1.371,0,0,1-.088.645c-.069.122-.167.3-.167.308l-.019-.005c0-.026.033-1.795.1-2.093a1.914,1.914,0,0,1,.607-.922,1.928,1.928,0,0,0,.714-1.353.916.916,0,0,0-.243-.788.864.864,0,0,0-.688-.186H324.3v-.005a1.015,1.015,0,0,0-.179-.734.776.776,0,0,0-1.022,0,1.078,1.078,0,0,0-.184.734l0,.005H322.9a.866.866,0,0,0-.688.186.936.936,0,0,0-.248.788,1.955,1.955,0,0,0,.72,1.353,1.945,1.945,0,0,1,.607.922c.068.3.085,1.965.085,1.965h-.01a.97.97,0,0,0-.192-.294,1.081,1.081,0,0,1-.093-.654,2.1,2.1,0,0,0-.431-1.529.824.824,0,0,0-.685-.351.8.8,0,0,0-.572.314l-.015.021-.005-.021a1.012,1.012,0,0,0-.6-.352.59.59,0,0,0-.471.192h-.012a.615.615,0,0,0-.21.463.942.942,0,0,0,.357.6l.009.006-.009.015a.8.8,0,0,0-.357.559.844.844,0,0,0,.357.665,1.682,1.682,0,0,0,1.387.347c.624-.032.842.005,1.033.2M318.9,292.2l-.01-.016.005-.005a.949.949,0,0,0,.237-.671.6.6,0,0,0-.29-.431.633.633,0,0,0-.5-.106,1.048,1.048,0,0,0-.527.463l-.008.015-.01-.01a.885.885,0,0,0-.64-.229.862.862,0,0,0-.6.49,3.452,3.452,0,0,0-.259,1.773,3.454,3.454,0,0,1-.013.645,1.141,1.141,0,0,1-.16.17.17.17,0,0,0-.053.112h-.016v-2a.225.225,0,0,0-.006-.063,1.738,1.738,0,0,1,.075-.6,1.472,1.472,0,0,1,.6-.713,2.375,2.375,0,0,1,1.057-.395,2,2,0,0,0,1.305-.612.819.819,0,0,0,.218-.665.87.87,0,0,0-.4-.533l-.01-.015h.005a1.011,1.011,0,0,0,.237-.693.592.592,0,0,0-.29-.4.582.582,0,0,0-.5-.112.981.981,0,0,0-.527.458l-.008.011-.01-.011a.957.957,0,0,0-.661-.234.934.934,0,0,0-.575.506,4.108,4.108,0,0,0-.267,1.9,2.339,2.339,0,0,1-.019.565c-.013.038-.131.117-.146.133a.163.163,0,0,0-.053.1h-.016L316.042,289a7.265,7.265,0,0,1,.1-.916,1.89,1.89,0,0,1,.606-.922,2.049,2.049,0,0,0,.718-1.347.941.941,0,0,0-.25-.793.882.882,0,0,0-.684-.187h-.014a1.04,1.04,0,0,0-.176-.7.648.648,0,0,0-.524-.208h-.045a.642.642,0,0,0-.517.208,1.056,1.056,0,0,0-.181.7h0a.888.888,0,0,0-.689.187.968.968,0,0,0-.248.793,2.016,2.016,0,0,0,.717,1.347,2.006,2.006,0,0,1,.607.922,7.941,7.941,0,0,1,.09.916L315.542,291h-.021a.128.128,0,0,0-.05-.1c-.013-.016-.133-.1-.144-.133a2.1,2.1,0,0,1-.021-.565,4.062,4.062,0,0,0-.263-1.9.733.733,0,0,0-1.246-.272l-.008.011-.005-.011a.987.987,0,0,0-.523-.458.593.593,0,0,0-.508.112.571.571,0,0,0-.293.4,1.049,1.049,0,0,0,.24.693h0l-.006.015a.89.89,0,0,0-.4.533.81.81,0,0,0,.22.665,1.97,1.97,0,0,0,1.3.612,2.319,2.319,0,0,1,1.049.395,1.513,1.513,0,0,1,.6.713,1.918,1.918,0,0,1,.072.6V294.4h-.021a.173.173,0,0,0-.05-.112,1.089,1.089,0,0,1-.157-.17,3.471,3.471,0,0,1-.016-.645,3.442,3.442,0,0,0-.255-1.773.879.879,0,0,0-.6-.49.866.866,0,0,0-.65.229l-.008.01-.005-.015a1.056,1.056,0,0,0-.523-.463.644.644,0,0,0-.508.106.577.577,0,0,0-.293.431.983.983,0,0,0,.24.671l0,.005-.006.016a.913.913,0,0,0-.4.517.823.823,0,0,0,.22.682,2.035,2.035,0,0,0,1.3.623,2,2,0,0,1,1.054.383,1.478,1.478,0,0,1,.6.724s.026.117.05.219a.825.825,0,0,1,.269-.038,1.105,1.105,0,0,1,.284.038,1.691,1.691,0,0,1,.049-.219,1.44,1.44,0,0,1,.6-.724,2.041,2.041,0,0,1,1.057-.383,2.063,2.063,0,0,0,1.305-.623.832.832,0,0,0,.218-.682.892.892,0,0,0-.4-.517m-5.5,5.235a2.519,2.519,0,0,0,.175-.981,7.344,7.344,0,0,0-1.3.336,1.521,1.521,0,0,1,.1.576,2.842,2.842,0,0,1-.165.932,9.091,9.091,0,0,1,1.191-.863m-4.655-4.154a8.268,8.268,0,0,0-1.462.229,1.929,1.929,0,0,0-1.2-.235,2.241,2.241,0,0,1-1.64-.436.859.859,0,0,1-.354-.693.9.9,0,0,1,.4-.591l.011-.01h-.011a1.044,1.044,0,0,1-.309-.581.592.592,0,0,1,.2-.458.91.91,0,0,1,1.249.074l.011.006,0-.006a.869.869,0,0,1,.572-.341,1,1,0,0,1,.778.394,2.13,2.13,0,0,1,.5,1.646,1.282,1.282,0,0,0,.095.645c.07.122.163.3.163.308l.021-.005c0-.026-.04-1.795-.1-2.093a1.942,1.942,0,0,0-.612-.922,1.959,1.959,0,0,1-.717-1.353.918.918,0,0,1,.25-.788.855.855,0,0,1,.682-.186h.011v-.005a1.057,1.057,0,0,1,.184-.734.657.657,0,0,1,.514-.192h0a.636.636,0,0,1,.506.192,1.036,1.036,0,0,1,.186.734v.005h0a.886.886,0,0,1,.7.186.925.925,0,0,1,.248.788,2,2,0,0,1-.722,1.353,1.914,1.914,0,0,0-.607.922c-.064.3-.091,1.965-.091,1.965h.019a.9.9,0,0,1,.184-.294,1.071,1.071,0,0,0,.1-.654,2.049,2.049,0,0,1,.428-1.529.826.826,0,0,1,.688-.351.852.852,0,0,1,.578.314l0,.021.008-.021a1.012,1.012,0,0,1,.6-.352.616.616,0,0,1,.483.192h0a.619.619,0,0,1,.215.463.988.988,0,0,1-.359.6l-.005.006.005.015a.792.792,0,0,1,.351.559.821.821,0,0,1-.351.665,1.684,1.684,0,0,1-1.385.347c-.625-.032-.841.005-1.033.2" transform="translate(-302.79499,-283.87084)"/>
  </g>
</svg>
